<?xml version="1.0" encoding="utf-8"?><svg xmlns="http://www.w3.org/2000/svg" viewBox="0 0 40 40" width="40px" height="40px"><g id="object-1" transform="matrix(1.151848, 0, 0, 1.146754, -3.043804, -0.45306)"><path style="fill: rgb(236, 222, 201);" d="M 8.053 17.785 C 8.053 17.785 4.6859463605131495 17.271037569028042 4.43 17.283 C 4.399367272450299 17.284431713613987 4.38106085835831 17.29991297531934 4.379 17.295 C 4.354431174022208 17.236429242253696 8.32111860158153 14.453342941936699 10.675 13.319 C 13.327304684146778 12.040845926328757 16.59997004347765 10.891662932899152 19.604 10.212 C 22.510735073111405 9.554350071888496 25.612017991696316 9.259558621320162 28.402 9.239 C 30.929426497826185 9.220376079082694 35.633 9.931 35.633 9.931 C 35.633 9.931 35.632999999999996 9.930999999999997 35.633 9.931 C 35.633 9.931 32.615 12.414 32.615 12.414"/><path style="fill: rgb(236, 222, 201);" d="M 14.682 10.338 C 14.682 10.338 8.31 13.358 8.31 13.358 C 8.309999999999999 13.357999999999997 8.309999999999999 13.357999999999999 8.31 13.358 C 8.31 13.358 9.035604837251261 10.189942989439281 9.863 8.689 C 10.800961424262448 6.987483375906879 12.34784304090183 4.891771159078342 13.871 3.798 C 15.170999659173127 2.8644769474203615 16.754967955951837 2.3124926500021896 18.18 2.17 C 19.510180237561585 2.036991828133034 20.897412899656768 2.348813689387086 22.141 2.817 C 23.417533211481572 3.297589879465187 25.728 5.057 25.728 5.057"/><path style="fill: rgb(236, 222, 201);" d="M 28.904 8.201 C 28.904 8.201 24.649686908647492 8.360097969800046 22.598 8.644 C 20.60625029131148 8.919608224414507 18.623652180260525 9.361464329342267 16.765 9.856 C 15.014682573453497 10.321710804632508 11.831346161585667 11.696084945784348 11.742 11.494 C 11.5950960169932 11.161729615748849 21.052728265191988 4.190773914510632 24.156 4.43 C 26.177919233587854 4.585866409635188 28.904 8.201 28.904 8.201 C 28.904000000000003 8.201 28.904 8.201 28.904 8.201 C 28.904 8.201 28.903999999999996 8.200999999999999 28.904 8.201"/><path style="fill: #FF776D;" d="M 6.643 26.145 C 6.643 26.145 8.262 16.399 8.262 16.399 C 8.261999999999999 16.399 8.261999999999999 16.399 8.262 16.399 C 8.262 16.399 13.853966199678114 13.811879177957266 16.802 12.919 C 19.788004809489767 12.014620437125739 23.39595541855388 11.387341272460178 26.072 11.028 C 28.083136212639385 10.75794312174349 31.055456711682712 10.688459718997828 31.404 10.677 C 31.441845343074394 10.675755686849964 31.439409585761428 10.660825333800691 31.467 10.677 C 31.674587935597753 10.798696816012438 32.73475509086624 12.491364539825563 33.209 13.789 C 33.8875006146492 15.645522738277005 34.46996805531696 18.752612493809703 34.591 20.957 C 34.693208990711234 22.818559960340952 34.171 26.146 34.171 26.146"/><path style="fill: rgb(244, 226, 199);" d="M 13.605 16.112 C 13.605 16.112 13.278448706954732 20.162678708560072 13.779 21.772 C 14.211144292899622 23.16138610528116 14.975778344724382 24.39142601956739 16.065 25.32 C 17.299402081931778 26.372341962833673 19.251878420631087 27.33765301772307 21.029 27.498 C 22.960075882842645 27.672238045362953 25.668716357250197 27.02886914033613 27.256 26.017 C 28.6464162292668 25.13063083652759 29.710434438728413 23.696702060844817 30.303 22.165 C 30.958075297735956 20.471718700631957 30.717 16.177 30.717 16.177"/><path style="fill: #FF776D;" d="M 22.485 16.053 C 22.485 16.053 21.521678345056895 19.1270890593481 21.589 19.223 C 21.595214579284974 19.231853706069487 21.600829562595997 19.227159495679633 21.617 19.225 C 21.748121086266348 19.207489316013753 22.801268566536912 18.90895273451631 23.359 18.615 C 23.958499023936568 18.299033628279133 24.66050122667956 17.82485062822089 25.078 17.353 C 25.424351532672958 16.961558877964496 25.796 16.073 25.796 16.073"/><ellipse style="fill: rgb(74, 111, 155);" cx="17.896" cy="20.285" rx="2.073" ry="2.064"/><ellipse style="stroke-width: 1; fill: rgb(74, 111, 155);" cx="27.285" cy="20.296" rx="2.073" ry="2.064"/><path style="fill: rgb(255, 254, 255);" transform="matrix(-0.000998, 0.053692, -0.054306, -0.001019, 57.546, -31.591)" d="M 1044.5 599.5 A 24.5 24.5 0 1 1 1044.5 648.5 L 1044.5 599.5 Z"/><ellipse style="fill: rgb(255, 213, 69);" cx="15.157" cy="27.726" rx="2.524" ry="3.704" transform="matrix(0.994928, 0.100594, 0.029491, 1.00808, -0.602836, -1.912153)"/><ellipse style="stroke-width: 1; fill: rgb(255, 213, 69);" cx="15.157" cy="27.726" rx="2.398" ry="3.704" transform="matrix(0.999935, 0.011406, 0.119334, 1.001426, -6.494, -0.147)"/><ellipse style="fill: rgb(255, 213, 69);" cx="13.745" cy="30.098" rx="5.117" ry="3.129"/><ellipse style="fill: rgb(255, 254, 255);" cx="11.965" cy="27.627" rx="1.475" ry="2.073"/><ellipse style="stroke-width: 1; fill: rgb(255, 254, 255);" cx="11.965" cy="27.627" rx="1.475" ry="2.073" transform="matrix(0.990996, -0.133895, 0.133895, 0.990996, -0.2947, 1.442)"/><ellipse style="stroke-width: 1; fill: rgb(74, 112, 157);" cx="12.231" cy="28.254" rx="0.743" ry="0.734"/><ellipse style="stroke-width: 1; fill: rgb(74, 112, 157);" cx="15.185" cy="27.878" rx="0.743" ry="0.734"/></g></svg>